<svg width="225" height="50" viewBox="0 0 225 50" fill="none" xmlns="http://www.w3.org/2000/svg">
<path d="M57.2107 26.7314H63.456L67.9591 15.3914L72.4951 26.7314H78.7074L85.3142 12.2688V10.2967H80.1537L75.5191 21.308L70.9174 10.2967H65.0008L60.432 21.308L55.7645 10.2967H50.604V12.2688L57.2107 26.7314ZM89.0508 26.7314H106.307V22.6227H92.4035V20.1247H105.387V16.7062H92.4035V14.4054H106.307V10.2967H87.1444V24.825L89.0508 26.7314ZM108.94 26.7314H128.004L129.911 24.825V20.3219L128.037 18.4154L129.319 17.1007V12.2031L127.412 10.2967H108.94V26.7314ZM114.199 16.7062V14.4054H124.06V16.7062H114.199ZM114.199 22.6227V20.1247H124.651V22.6227H114.199ZM53.0034 49.7314H71.3118V45.3269H56.3561V37.7012H66.3485V40.5937H71.3118V33.2967H53.0034L51.097 35.2031V47.825L53.0034 49.7314ZM75.8581 49.7314H93.016L94.9224 47.825V35.2031L93.016 33.2967H75.8581L73.9516 35.2031V47.825L75.8581 49.7314ZM79.2108 45.3269V37.7012H89.6633V45.3269H79.2108ZM96.5662 49.7314H101.727L103.995 39.1146L107.577 49.7314H113.264L116.847 39.1146L119.115 49.7314H124.275V47.8579L120.429 33.2967H113.921L110.404 43.3547L106.92 33.2967H100.412L96.5662 47.8579V49.7314ZM125.584 49.7314H130.744L133.012 39.1146L136.595 49.7314H142.282L145.864 39.1146L148.132 49.7314H153.293V47.8579L149.447 33.2967H142.939L139.422 43.3547L135.938 33.2967H129.43L125.584 47.8579V49.7314ZM154.601 49.7314H159.729L161.143 47.1019H171.792L173.206 49.7314H178.333V47.7921L169.59 33.2967H163.345L154.601 47.7921V49.7314ZM163.509 42.7302L166.467 37.2739L169.426 42.7302H163.509ZM179.975 49.7314H185.234V39.3118L193.255 49.7314H199.993V33.2967H194.734V43.8807L186.418 33.2967H179.975V49.7314ZM202.637 49.7314H221.702L223.608 47.825V40.0349L216.87 33.2967H202.637V49.7314ZM207.896 45.3269V37.7012H214.437L218.349 41.6127V45.3269H207.896Z" fill="#01D4BA"/>
<path d="M12.3801 10.5668L1 21.1818V48.2396H29.9675L40.52 39.2897" stroke="#01D4BA" stroke-width="0.696429"/>
<path d="M29.8711 22.861L40.8222 10.782V39.5811L29.8711 48.7315V22.861Z" fill="#01D4BA"/>
<path d="M12.4489 10.0751H40.3244L29.8711 21.3857H1L12.4489 10.0751Z" fill="#01D4BA"/>
<path d="M137.715 21.7314H138.431V15.3804L141.147 21.7314H141.746L144.463 15.3804V21.7314H145.178V14.5781H144.076L141.447 20.6681L138.817 14.5781H137.715V21.7314ZM151.876 16.4438H151.2V17.3621H151.18C150.542 16.3858 149.556 16.3181 149.102 16.3181C147.207 16.3181 146.289 17.7971 146.289 19.0538C146.289 20.6971 147.536 21.8571 149.121 21.8571C150.272 21.8571 150.881 21.1998 151.18 20.7454H151.2V21.7314H151.876V16.4438ZM149.102 16.9658C150.301 16.9658 151.2 17.9228 151.2 19.1214C151.2 20.2814 150.281 21.2094 149.121 21.2094C147.99 21.2094 147.004 20.3201 147.004 19.1118C147.004 17.8841 147.952 16.9658 149.102 16.9658ZM153.091 21.7314H153.806V18.5994C153.806 17.5264 154.628 17.0818 155.304 17.0431V16.3278C154.657 16.3084 154.077 16.6371 153.787 17.2074H153.767V16.4438H153.091V21.7314ZM155.998 21.7314H156.714V20.7261L157.555 19.6434L159.275 21.7314H160.194L158.009 19.0924L160.058 16.4438H159.208L156.714 19.7401V14.5781H155.998V21.7314ZM166.119 19.3438C166.129 17.9808 165.404 16.3181 163.403 16.3181C161.605 16.3181 160.648 17.7874 160.648 19.0924C160.648 20.6778 161.846 21.8571 163.403 21.8571C164.601 21.8571 165.568 21.1514 165.993 20.0108H165.249C164.92 20.7358 164.234 21.2094 163.403 21.2094C162.291 21.2094 161.479 20.3974 161.392 19.3438H166.119ZM161.392 18.6961C161.566 17.6908 162.388 16.9658 163.403 16.9658C164.321 16.9658 165.143 17.6231 165.346 18.6961H161.392ZM167.747 21.7314H168.462V17.0914H169.69V16.4438H168.462V14.5781H167.747V16.4438H166.645V17.0914H167.747V21.7314ZM170.413 21.7314H171.129V16.4438H170.413V21.7314ZM170.413 15.7961H171.129V14.5781H170.413V15.7961ZM172.349 21.7314H173.064V18.8314C173.064 17.3428 173.953 16.9658 174.688 16.9658C176.341 16.9658 176.37 18.5608 176.37 18.9474V21.7314H177.085V18.9474C177.085 17.0624 175.974 16.3181 174.775 16.3181C174.079 16.3181 173.451 16.6081 173.045 17.2074H173.025V16.4438H172.349V21.7314ZM183.536 16.4438H182.86V17.4684H182.84C182.454 16.7434 181.729 16.3181 180.762 16.3181C179.206 16.3181 178.046 17.5458 178.046 19.1021C178.046 20.6004 179.215 21.8571 180.801 21.8571C181.758 21.8571 182.454 21.4028 182.802 20.6874H182.821V20.9774C182.821 21.5671 182.734 23.1524 180.878 23.1524C180.124 23.1524 179.283 22.7271 178.925 21.8571H178.21C178.568 23.0171 179.554 23.8001 180.888 23.8001C182.26 23.8001 183.536 23.0074 183.536 20.9774V16.4438ZM180.772 16.9658C181.912 16.9658 182.86 17.8648 182.86 19.0924C182.86 20.2621 181.999 21.2094 180.81 21.2094C179.602 21.2094 178.761 20.2234 178.761 19.0634C178.761 17.8938 179.602 16.9658 180.772 16.9658ZM186.506 21.7314H187.28L188.314 19.3341H191.639L192.674 21.7314H193.447L190.383 14.5781H189.59L186.506 21.7314ZM188.594 18.6864L189.986 15.4094L191.359 18.6864H188.594ZM199.452 16.4438H198.776V17.4684H198.756C198.37 16.7434 197.645 16.3181 196.678 16.3181C195.122 16.3181 193.962 17.5458 193.962 19.1021C193.962 20.6004 195.131 21.8571 196.717 21.8571C197.674 21.8571 198.37 21.4028 198.718 20.6874H198.737V20.9774C198.737 21.5671 198.65 23.1524 196.794 23.1524C196.04 23.1524 195.199 22.7271 194.841 21.8571H194.126C194.484 23.0171 195.47 23.8001 196.804 23.8001C198.176 23.8001 199.452 23.0074 199.452 20.9774V16.4438ZM196.688 16.9658C197.828 16.9658 198.776 17.8648 198.776 19.0924C198.776 20.2621 197.915 21.2094 196.726 21.2094C195.518 21.2094 194.677 20.2234 194.677 19.0634C194.677 17.8938 195.518 16.9658 196.688 16.9658ZM205.937 19.3438C205.947 17.9808 205.222 16.3181 203.221 16.3181C201.423 16.3181 200.466 17.7874 200.466 19.0924C200.466 20.6778 201.665 21.8571 203.221 21.8571C204.42 21.8571 205.386 21.1514 205.812 20.0108H205.067C204.739 20.7358 204.052 21.2094 203.221 21.2094C202.109 21.2094 201.297 20.3974 201.21 19.3438H205.937ZM201.21 18.6961C201.384 17.6908 202.206 16.9658 203.221 16.9658C204.139 16.9658 204.961 17.6231 205.164 18.6961H201.21ZM206.956 21.7314H207.671V18.8314C207.671 17.3428 208.561 16.9658 209.295 16.9658C210.948 16.9658 210.977 18.5608 210.977 18.9474V21.7314H211.693V18.9474C211.693 17.0624 210.581 16.3181 209.382 16.3181C208.686 16.3181 208.058 16.6081 207.652 17.2074H207.633V16.4438H206.956V21.7314ZM217.254 20.1848C216.877 20.8518 216.201 21.2094 215.476 21.2094C214.325 21.2094 213.368 20.2814 213.368 19.0731C213.368 17.9034 214.248 16.9658 215.476 16.9658C215.717 16.9658 216.723 17.0044 217.254 18.0484H218.057C217.641 17.0044 216.703 16.3181 215.476 16.3181C213.629 16.3181 212.653 17.8164 212.653 19.0828C212.653 20.4651 213.668 21.8571 215.476 21.8571C216.926 21.8571 217.689 20.9678 218.047 20.1848H217.254ZM222.856 16.4438L221.116 20.5618L219.453 16.4438H218.603L220.681 21.4898L219.801 23.5874H220.565L223.62 16.4438H222.856Z" fill="#01D4BA"/>
</svg>
